# xmcd
#
# Track frame offsets:
#	150
#	15851
#	25630
#	46647
#	57973
#	69479
#	84118
#	102452
#
# Disc length: 1606 seconds
#
# Revision: 1
# Processed by: cddbd v1.5.2PL0 Copyright (c) Steve Scherf et al.
# Submitted via: audiograbber 1.83.01
#
DISCID=4d064408
DTITLE=totus gaudeo - Vagantenstreich
DYEAR=2007
DGENRE=Medivial
TTITLE0=La Morte
TTITLE1=Schiarazula
TTITLE2=Hippolyt
TTITLE3=Coleraine Jig
TTITLE4=totus gaudeo
TTITLE5=Bouronda
TTITLE6=Schnorrer, Penner, Schräge Narre
TTITLE7=Totus Floreo
EXTD=
EXTT0=
EXTT1=
EXTT2=
EXTT3=
EXTT4=
EXTT5=
EXTT6=
EXTT7=
PLAYORDER=
